<svg width="285" height="108" viewBox="0 0 285 108" fill="none" xmlns="http://www.w3.org/2000/svg">
<path d="M164 68H148" stroke="#215947" stroke-width="2" stroke-miterlimit="10"/>
<path d="M6.58 81.968V98.432H8.904V100H0.896V98.432H3.444V81.968H0.896V80.4H21.728V81.968H19.18V98.432H21.728V100H13.72V98.432H16.044V81.968H6.58ZM24.2093 90.2C24.2093 88.744 24.4333 87.4 24.8813 86.168C25.3293 84.9173 25.9733 83.844 26.8133 82.948C27.6719 82.0333 28.7173 81.324 29.9493 80.82C31.1999 80.316 32.6186 80.064 34.2053 80.064C35.7919 80.064 37.2106 80.316 38.4613 80.82C39.7119 81.324 40.7666 82.0333 41.6253 82.948C42.4839 83.844 43.1373 84.9173 43.5853 86.168C44.0333 87.4 44.2573 88.744 44.2573 90.2C44.2573 91.656 44.0333 93.0093 43.5853 94.26C43.1373 95.492 42.4839 96.5653 41.6253 97.48C40.7666 98.376 39.7119 99.076 38.4613 99.58C37.2106 100.084 35.7919 100.336 34.2053 100.336C32.6186 100.336 31.1999 100.084 29.9493 99.58C28.7173 99.076 27.6719 98.376 26.8133 97.48C25.9733 96.5653 25.3293 95.492 24.8813 94.26C24.4333 93.0093 24.2093 91.656 24.2093 90.2ZM27.7093 90.2C27.7093 91.3947 27.8399 92.5147 28.1013 93.56C28.3813 94.6053 28.8013 95.5107 29.3613 96.276C29.9213 97.0413 30.6213 97.648 31.4613 98.096C32.3199 98.544 33.3279 98.768 34.4853 98.768C35.5493 98.768 36.4733 98.544 37.2573 98.096C38.0413 97.648 38.6853 97.0413 39.1893 96.276C39.7119 95.5107 40.1039 94.6053 40.3653 93.56C40.6266 92.5147 40.7573 91.3947 40.7573 90.2C40.7573 89.0053 40.6173 87.8853 40.3373 86.84C40.0759 85.7947 39.6653 84.8893 39.1053 84.124C38.5453 83.3587 37.8359 82.752 36.9773 82.304C36.1373 81.856 35.1293 81.632 33.9533 81.632C32.8333 81.632 31.8719 81.856 31.0693 82.304C30.2853 82.752 29.6413 83.3587 29.1373 84.124C28.6333 84.8893 28.2693 85.7947 28.0453 86.84C27.8213 87.8853 27.7093 89.0053 27.7093 90.2ZM65.5018 81.968H62.9538V98.432H65.8658V104.536H63.7658V100.616L63.2058 100H48.0298L47.4698 100.616V104.536H45.3698V98.432H48.1138C48.6365 97.648 49.1312 96.64 49.5978 95.408C50.0645 94.176 50.4658 92.832 50.8018 91.376C51.1565 89.9013 51.4365 88.3613 51.6418 86.756C51.8472 85.132 51.9498 83.536 51.9498 81.968H48.9258V80.4H65.5018V81.968ZM59.8178 98.432V81.968H53.8818C53.7698 84.264 53.5738 86.308 53.2938 88.1C53.0325 89.8733 52.7245 91.432 52.3698 92.776C52.0338 94.12 51.6698 95.2587 51.2778 96.192C50.9045 97.1067 50.5685 97.8533 50.2698 98.432H59.8178ZM68.1507 90.2C68.1507 88.744 68.3747 87.4 68.8227 86.168C69.2707 84.9173 69.9147 83.844 70.7547 82.948C71.6134 82.0333 72.6587 81.324 73.8907 80.82C75.1414 80.316 76.56 80.064 78.1467 80.064C79.7334 80.064 81.152 80.316 82.4027 80.82C83.6534 81.324 84.708 82.0333 85.5667 82.948C86.4254 83.844 87.0787 84.9173 87.5267 86.168C87.9747 87.4 88.1987 88.744 88.1987 90.2C88.1987 91.656 87.9747 93.0093 87.5267 94.26C87.0787 95.492 86.4254 96.5653 85.5667 97.48C84.708 98.376 83.6534 99.076 82.4027 99.58C81.152 100.084 79.7334 100.336 78.1467 100.336C76.56 100.336 75.1414 100.084 73.8907 99.58C72.6587 99.076 71.6134 98.376 70.7547 97.48C69.9147 96.5653 69.2707 95.492 68.8227 94.26C68.3747 93.0093 68.1507 91.656 68.1507 90.2ZM71.6507 90.2C71.6507 91.3947 71.7814 92.5147 72.0427 93.56C72.3227 94.6053 72.7427 95.5107 73.3027 96.276C73.8627 97.0413 74.5627 97.648 75.4027 98.096C76.2614 98.544 77.2694 98.768 78.4267 98.768C79.4907 98.768 80.4147 98.544 81.1987 98.096C81.9827 97.648 82.6267 97.0413 83.1307 96.276C83.6534 95.5107 84.0454 94.6053 84.3067 93.56C84.568 92.5147 84.6987 91.3947 84.6987 90.2C84.6987 89.0053 84.5587 87.8853 84.2787 86.84C84.0174 85.7947 83.6067 84.8893 83.0467 84.124C82.4867 83.3587 81.7774 82.752 80.9187 82.304C80.0787 81.856 79.0707 81.632 77.8947 81.632C76.7747 81.632 75.8134 81.856 75.0107 82.304C74.2267 82.752 73.5827 83.3587 73.0787 84.124C72.5747 84.8893 72.2107 85.7947 71.9867 86.84C71.7627 87.8853 71.6507 89.0053 71.6507 90.2ZM105.729 94.848H107.521V99.244C106.942 99.5613 106.177 99.8227 105.225 100.028C104.273 100.233 103.33 100.336 102.397 100.336C100.68 100.336 99.1395 100.14 97.7769 99.748C96.4142 99.356 95.2569 98.7493 94.3049 97.928C93.3715 97.088 92.6529 96.0333 92.1489 94.764C91.6449 93.4947 91.3929 91.9733 91.3929 90.2C91.3929 88.3707 91.6729 86.8213 92.2329 85.552C92.7929 84.264 93.5489 83.2187 94.5009 82.416C95.4529 81.5947 96.5542 80.9973 97.8049 80.624C99.0555 80.2507 100.372 80.064 101.753 80.064C102.425 80.064 103.032 80.092 103.573 80.148C104.114 80.1853 104.6 80.2507 105.029 80.344C105.477 80.4373 105.888 80.5493 106.261 80.68C106.634 80.8107 106.998 80.9507 107.353 81.1V85.888H105.561V82.948L105.169 82.388C104.964 82.2947 104.637 82.1827 104.189 82.052C103.76 81.9213 103.06 81.856 102.089 81.856C101.081 81.856 100.138 82.0147 99.2609 82.332C98.3835 82.6493 97.6182 83.144 96.9649 83.816C96.3302 84.488 95.8262 85.356 95.4529 86.42C95.0795 87.4653 94.8929 88.7253 94.8929 90.2C94.8929 92.8693 95.5649 94.932 96.9089 96.388C98.2715 97.8253 100.176 98.544 102.621 98.544C103.293 98.544 103.853 98.4973 104.301 98.404C104.768 98.292 105.113 98.152 105.337 97.984L105.729 97.452V94.848ZM118.279 100H110.271V98.432H112.819V81.968H110.271V80.4H118.279V81.968H115.955V93.98L115.619 96.08L117.131 93.868L126.287 82.584V81.968H123.739V80.4H131.803V81.968H129.255V98.432H131.803V100H123.739V98.432H126.119V86.448L126.427 84.348L125.055 86.448L115.759 97.872V98.432H118.279V100ZM141.603 98.432V100H133.595V98.432H136.143V81.968H133.595V80.4H141.603V81.968H139.279V89.164H149.079V81.968H146.755V80.4H154.763V81.968H152.215V98.432H154.763V100H146.755V98.432H149.079V90.732H139.279V98.432H141.603ZM157.264 90.2C157.264 88.744 157.488 87.4 157.936 86.168C158.384 84.9173 159.028 83.844 159.868 82.948C160.727 82.0333 161.772 81.324 163.004 80.82C164.255 80.316 165.673 80.064 167.26 80.064C168.847 80.064 170.265 80.316 171.516 80.82C172.767 81.324 173.821 82.0333 174.68 82.948C175.539 83.844 176.192 84.9173 176.64 86.168C177.088 87.4 177.312 88.744 177.312 90.2C177.312 91.656 177.088 93.0093 176.64 94.26C176.192 95.492 175.539 96.5653 174.68 97.48C173.821 98.376 172.767 99.076 171.516 99.58C170.265 100.084 168.847 100.336 167.26 100.336C165.673 100.336 164.255 100.084 163.004 99.58C161.772 99.076 160.727 98.376 159.868 97.48C159.028 96.5653 158.384 95.492 157.936 94.26C157.488 93.0093 157.264 91.656 157.264 90.2ZM160.764 90.2C160.764 91.3947 160.895 92.5147 161.156 93.56C161.436 94.6053 161.856 95.5107 162.416 96.276C162.976 97.0413 163.676 97.648 164.516 98.096C165.375 98.544 166.383 98.768 167.54 98.768C168.604 98.768 169.528 98.544 170.312 98.096C171.096 97.648 171.74 97.0413 172.244 96.276C172.767 95.5107 173.159 94.6053 173.42 93.56C173.681 92.5147 173.812 91.3947 173.812 90.2C173.812 89.0053 173.672 87.8853 173.392 86.84C173.131 85.7947 172.72 84.8893 172.16 84.124C171.6 83.3587 170.891 82.752 170.032 82.304C169.192 81.856 168.184 81.632 167.008 81.632C165.888 81.632 164.927 81.856 164.124 82.304C163.34 82.752 162.696 83.3587 162.192 84.124C161.688 84.8893 161.324 85.7947 161.1 86.84C160.876 87.8853 160.764 89.0053 160.764 90.2ZM179.806 100V98.432H182.354V81.968H179.806V80.4H183.474C183.866 80.4 184.239 80.3907 184.594 80.372C184.949 80.3533 185.322 80.3347 185.714 80.316C186.106 80.2973 186.526 80.2787 186.974 80.26C187.441 80.2413 187.954 80.232 188.514 80.232C189.335 80.232 190.175 80.2973 191.034 80.428C191.893 80.54 192.667 80.764 193.358 81.1C194.049 81.436 194.609 81.912 195.038 82.528C195.486 83.1253 195.71 83.9093 195.71 84.88C195.71 85.384 195.617 85.8787 195.43 86.364C195.262 86.8493 195.001 87.2973 194.646 87.708C194.31 88.1187 193.881 88.4827 193.358 88.8C192.835 89.1173 192.229 89.3507 191.538 89.5V89.612C192.154 89.7053 192.77 89.864 193.386 90.088C194.002 90.312 194.553 90.62 195.038 91.012C195.542 91.3853 195.943 91.852 196.242 92.412C196.541 92.972 196.69 93.644 196.69 94.428C196.69 95.436 196.438 96.304 195.934 97.032C195.449 97.76 194.805 98.3573 194.002 98.824C193.199 99.2907 192.285 99.636 191.258 99.86C190.25 100.065 189.223 100.168 188.178 100.168C187.45 100.168 186.629 100.14 185.714 100.084C184.818 100.028 183.95 100 183.11 100H179.806ZM188.402 98.6C189.13 98.6 189.802 98.5067 190.418 98.32C191.053 98.1147 191.594 97.8347 192.042 97.48C192.49 97.1253 192.835 96.7053 193.078 96.22C193.339 95.716 193.47 95.1653 193.47 94.568C193.47 93.8213 193.311 93.2053 192.994 92.72C192.695 92.216 192.285 91.824 191.762 91.544C191.258 91.2453 190.661 91.04 189.97 90.928C189.279 90.816 188.551 90.76 187.786 90.76H185.49V98.348C185.77 98.4227 186.106 98.488 186.498 98.544C186.909 98.5813 187.543 98.6 188.402 98.6ZM187.002 89.304C187.375 89.304 187.786 89.2947 188.234 89.276C188.701 89.2387 189.093 89.2013 189.41 89.164C190.362 88.8653 191.127 88.3893 191.706 87.736C192.285 87.064 192.574 86.28 192.574 85.384C192.574 84.152 192.182 83.2467 191.398 82.668C190.614 82.0893 189.55 81.8 188.206 81.8C187.571 81.8 187.03 81.8187 186.582 81.856C186.153 81.8747 185.789 81.9027 185.49 81.94V89.304H187.002ZM214.174 94.848H215.966V99.244C215.388 99.5613 214.622 99.8227 213.67 100.028C212.718 100.233 211.776 100.336 210.842 100.336C209.125 100.336 207.585 100.14 206.222 99.748C204.86 99.356 203.702 98.7493 202.75 97.928C201.817 97.088 201.098 96.0333 200.594 94.764C200.09 93.4947 199.838 91.9733 199.838 90.2C199.838 88.3707 200.118 86.8213 200.678 85.552C201.238 84.264 201.994 83.2187 202.946 82.416C203.898 81.5947 205 80.9973 206.25 80.624C207.501 80.2507 208.817 80.064 210.198 80.064C210.87 80.064 211.477 80.092 212.018 80.148C212.56 80.1853 213.045 80.2507 213.474 80.344C213.922 80.4373 214.333 80.5493 214.706 80.68C215.08 80.8107 215.444 80.9507 215.798 81.1V85.888H214.006V82.948L213.614 82.388C213.409 82.2947 213.082 82.1827 212.634 82.052C212.205 81.9213 211.505 81.856 210.534 81.856C209.526 81.856 208.584 82.0147 207.706 82.332C206.829 82.6493 206.064 83.144 205.41 83.816C204.776 84.488 204.272 85.356 203.898 86.42C203.525 87.4653 203.338 88.7253 203.338 90.2C203.338 92.8693 204.01 94.932 205.354 96.388C206.717 97.8253 208.621 98.544 211.066 98.544C211.738 98.544 212.298 98.4973 212.746 98.404C213.213 98.292 213.558 98.152 213.782 97.984L214.174 97.452V94.848ZM226.22 89.304L232.324 81.968H230.056V80.4H236.972V81.968H234.76L228.096 89.444L236.02 98.432H237.756V100H233.248L225.884 90.704H224.4V98.432H226.724V100H218.716V98.432H221.264V81.968H218.716V80.4H226.724V81.968H224.4V89.304H226.22ZM246.658 100H238.65V98.432H241.198V81.968H238.65V80.4H246.658V81.968H244.334V93.98L243.998 96.08L245.51 93.868L254.666 82.584V81.968H252.118V80.4H260.182V81.968H257.634V98.432H260.182V100H252.118V98.432H254.498V86.448L254.806 84.348L253.434 86.448L244.138 97.872V98.432H246.658V100ZM269.982 100H261.974V98.432H264.522V81.968H261.974V80.4H269.982V81.968H267.658V93.98L267.322 96.08L268.834 93.868L277.99 82.584V81.968H275.442V80.4H283.506V81.968H280.958V98.432H283.506V100H275.442V98.432H277.822V86.448L278.13 84.348L276.758 86.448L267.462 97.872V98.432H269.982V100ZM272.894 79.196C270.971 79.196 269.553 78.8787 268.638 78.244C267.723 77.6093 267.266 76.6387 267.266 75.332H270.514V77.544C270.775 77.6747 271.121 77.7773 271.55 77.852C271.979 77.908 272.437 77.936 272.922 77.936C273.277 77.936 273.697 77.908 274.182 77.852C274.667 77.796 275.05 77.7213 275.33 77.628V75.332H278.438C278.438 76.62 277.999 77.5907 277.122 78.244C276.263 78.8787 274.854 79.196 272.894 79.196Z" fill="#215947"/>
<path d="M132 14.7583L128.897 11L120.276 25.0083H126.617L114.759 36.2833H123.379L112 52H119.338" stroke="#215947" stroke-width="2" stroke-miterlimit="10"/>
<path d="M122 67.956H137.407L139.428 51.8799H122L135.247 33.0963H125.108L138.517 18.8816H131.424L142.855 2L154.028 18.8816H147.011L160.676 33.0963H150.787L164 52.3876L146.216 51.8799L148.433 68L137.547 67.956" stroke="#215947" stroke-width="2" stroke-miterlimit="10"/>
<path d="M154 15.6667L156.948 12L165.138 25.6667H159.117L170.379 36.6667H162.19L173 52H166.029" stroke="#215947" stroke-width="2" stroke-miterlimit="10"/>
</svg>
