<svg width="312" height="69" viewBox="0 0 312 69" fill="none" xmlns="http://www.w3.org/2000/svg">
<path d="M33.58 42.968V59.432H35.904V61H27.896V59.432H30.444V42.968H27.896V41.4H48.728V42.968H46.18V59.432H48.728V61H40.72V59.432H43.044V42.968H33.58ZM51.2093 51.2C51.2093 49.744 51.4333 48.4 51.8813 47.168C52.3293 45.9173 52.9733 44.844 53.8133 43.948C54.6719 43.0333 55.7173 42.324 56.9493 41.82C58.1999 41.316 59.6186 41.064 61.2053 41.064C62.7919 41.064 64.2106 41.316 65.4613 41.82C66.7119 42.324 67.7666 43.0333 68.6253 43.948C69.4839 44.844 70.1373 45.9173 70.5853 47.168C71.0333 48.4 71.2573 49.744 71.2573 51.2C71.2573 52.656 71.0333 54.0093 70.5853 55.26C70.1373 56.492 69.4839 57.5653 68.6253 58.48C67.7666 59.376 66.7119 60.076 65.4613 60.58C64.2106 61.084 62.7919 61.336 61.2053 61.336C59.6186 61.336 58.1999 61.084 56.9493 60.58C55.7173 60.076 54.6719 59.376 53.8133 58.48C52.9733 57.5653 52.3293 56.492 51.8813 55.26C51.4333 54.0093 51.2093 52.656 51.2093 51.2ZM54.7093 51.2C54.7093 52.3947 54.8399 53.5147 55.1013 54.56C55.3813 55.6053 55.8013 56.5107 56.3613 57.276C56.9213 58.0413 57.6213 58.648 58.4613 59.096C59.3199 59.544 60.3279 59.768 61.4853 59.768C62.5493 59.768 63.4733 59.544 64.2573 59.096C65.0413 58.648 65.6853 58.0413 66.1893 57.276C66.7119 56.5107 67.1039 55.6053 67.3653 54.56C67.6266 53.5147 67.7573 52.3947 67.7573 51.2C67.7573 50.0053 67.6173 48.8853 67.3373 47.84C67.0759 46.7947 66.6653 45.8893 66.1053 45.124C65.5453 44.3587 64.8359 43.752 63.9773 43.304C63.1373 42.856 62.1293 42.632 60.9533 42.632C59.8333 42.632 58.8719 42.856 58.0693 43.304C57.2853 43.752 56.6413 44.3587 56.1373 45.124C55.6333 45.8893 55.2693 46.7947 55.0453 47.84C54.8213 48.8853 54.7093 50.0053 54.7093 51.2ZM92.5018 42.968H89.9538V59.432H92.8658V65.536H90.7658V61.616L90.2058 61H75.0298L74.4698 61.616V65.536H72.3698V59.432H75.1138C75.6365 58.648 76.1312 57.64 76.5978 56.408C77.0645 55.176 77.4658 53.832 77.8018 52.376C78.1565 50.9013 78.4365 49.3613 78.6418 47.756C78.8472 46.132 78.9498 44.536 78.9498 42.968H75.9258V41.4H92.5018V42.968ZM86.8178 59.432V42.968H80.8818C80.7698 45.264 80.5738 47.308 80.2938 49.1C80.0325 50.8733 79.7245 52.432 79.3698 53.776C79.0338 55.12 78.6698 56.2587 78.2778 57.192C77.9045 58.1067 77.5685 58.8533 77.2698 59.432H86.8178ZM95.1507 51.2C95.1507 49.744 95.3747 48.4 95.8227 47.168C96.2707 45.9173 96.9147 44.844 97.7547 43.948C98.6134 43.0333 99.6587 42.324 100.891 41.82C102.141 41.316 103.56 41.064 105.147 41.064C106.733 41.064 108.152 41.316 109.403 41.82C110.653 42.324 111.708 43.0333 112.567 43.948C113.425 44.844 114.079 45.9173 114.527 47.168C114.975 48.4 115.199 49.744 115.199 51.2C115.199 52.656 114.975 54.0093 114.527 55.26C114.079 56.492 113.425 57.5653 112.567 58.48C111.708 59.376 110.653 60.076 109.403 60.58C108.152 61.084 106.733 61.336 105.147 61.336C103.56 61.336 102.141 61.084 100.891 60.58C99.6587 60.076 98.6134 59.376 97.7547 58.48C96.9147 57.5653 96.2707 56.492 95.8227 55.26C95.3747 54.0093 95.1507 52.656 95.1507 51.2ZM98.6507 51.2C98.6507 52.3947 98.7814 53.5147 99.0427 54.56C99.3227 55.6053 99.7427 56.5107 100.303 57.276C100.863 58.0413 101.563 58.648 102.403 59.096C103.261 59.544 104.269 59.768 105.427 59.768C106.491 59.768 107.415 59.544 108.199 59.096C108.983 58.648 109.627 58.0413 110.131 57.276C110.653 56.5107 111.045 55.6053 111.307 54.56C111.568 53.5147 111.699 52.3947 111.699 51.2C111.699 50.0053 111.559 48.8853 111.279 47.84C111.017 46.7947 110.607 45.8893 110.047 45.124C109.487 44.3587 108.777 43.752 107.919 43.304C107.079 42.856 106.071 42.632 104.895 42.632C103.775 42.632 102.813 42.856 102.011 43.304C101.227 43.752 100.583 44.3587 100.079 45.124C99.5747 45.8893 99.2107 46.7947 98.9867 47.84C98.7627 48.8853 98.6507 50.0053 98.6507 51.2ZM132.729 55.848H134.521V60.244C133.942 60.5613 133.177 60.8227 132.225 61.028C131.273 61.2333 130.33 61.336 129.397 61.336C127.68 61.336 126.14 61.14 124.777 60.748C123.414 60.356 122.257 59.7493 121.305 58.928C120.372 58.088 119.653 57.0333 119.149 55.764C118.645 54.4947 118.393 52.9733 118.393 51.2C118.393 49.3707 118.673 47.8213 119.233 46.552C119.793 45.264 120.549 44.2187 121.501 43.416C122.453 42.5947 123.554 41.9973 124.805 41.624C126.056 41.2507 127.372 41.064 128.753 41.064C129.425 41.064 130.032 41.092 130.573 41.148C131.114 41.1853 131.6 41.2507 132.029 41.344C132.477 41.4373 132.888 41.5493 133.261 41.68C133.634 41.8107 133.998 41.9507 134.353 42.1V46.888H132.561V43.948L132.169 43.388C131.964 43.2947 131.637 43.1827 131.189 43.052C130.76 42.9213 130.06 42.856 129.089 42.856C128.081 42.856 127.138 43.0147 126.261 43.332C125.384 43.6493 124.618 44.144 123.965 44.816C123.33 45.488 122.826 46.356 122.453 47.42C122.08 48.4653 121.893 49.7253 121.893 51.2C121.893 53.8693 122.565 55.932 123.909 57.388C125.272 58.8253 127.176 59.544 129.621 59.544C130.293 59.544 130.853 59.4973 131.301 59.404C131.768 59.292 132.113 59.152 132.337 58.984L132.729 58.452V55.848ZM145.279 61H137.271V59.432H139.819V42.968H137.271V41.4H145.279V42.968H142.955V54.98L142.619 57.08L144.131 54.868L153.287 43.584V42.968H150.739V41.4H158.803V42.968H156.255V59.432H158.803V61H150.739V59.432H153.119V47.448L153.427 45.348L152.055 47.448L142.759 58.872V59.432H145.279V61ZM168.603 59.432V61H160.595V59.432H163.143V42.968H160.595V41.4H168.603V42.968H166.279V50.164H176.079V42.968H173.755V41.4H181.763V42.968H179.215V59.432H181.763V61H173.755V59.432H176.079V51.732H166.279V59.432H168.603ZM184.264 51.2C184.264 49.744 184.488 48.4 184.936 47.168C185.384 45.9173 186.028 44.844 186.868 43.948C187.727 43.0333 188.772 42.324 190.004 41.82C191.255 41.316 192.673 41.064 194.26 41.064C195.847 41.064 197.265 41.316 198.516 41.82C199.767 42.324 200.821 43.0333 201.68 43.948C202.539 44.844 203.192 45.9173 203.64 47.168C204.088 48.4 204.312 49.744 204.312 51.2C204.312 52.656 204.088 54.0093 203.64 55.26C203.192 56.492 202.539 57.5653 201.68 58.48C200.821 59.376 199.767 60.076 198.516 60.58C197.265 61.084 195.847 61.336 194.26 61.336C192.673 61.336 191.255 61.084 190.004 60.58C188.772 60.076 187.727 59.376 186.868 58.48C186.028 57.5653 185.384 56.492 184.936 55.26C184.488 54.0093 184.264 52.656 184.264 51.2ZM187.764 51.2C187.764 52.3947 187.895 53.5147 188.156 54.56C188.436 55.6053 188.856 56.5107 189.416 57.276C189.976 58.0413 190.676 58.648 191.516 59.096C192.375 59.544 193.383 59.768 194.54 59.768C195.604 59.768 196.528 59.544 197.312 59.096C198.096 58.648 198.74 58.0413 199.244 57.276C199.767 56.5107 200.159 55.6053 200.42 54.56C200.681 53.5147 200.812 52.3947 200.812 51.2C200.812 50.0053 200.672 48.8853 200.392 47.84C200.131 46.7947 199.72 45.8893 199.16 45.124C198.6 44.3587 197.891 43.752 197.032 43.304C196.192 42.856 195.184 42.632 194.008 42.632C192.888 42.632 191.927 42.856 191.124 43.304C190.34 43.752 189.696 44.3587 189.192 45.124C188.688 45.8893 188.324 46.7947 188.1 47.84C187.876 48.8853 187.764 50.0053 187.764 51.2ZM206.806 61V59.432H209.354V42.968H206.806V41.4H210.474C210.866 41.4 211.239 41.3907 211.594 41.372C211.949 41.3533 212.322 41.3347 212.714 41.316C213.106 41.2973 213.526 41.2787 213.974 41.26C214.441 41.2413 214.954 41.232 215.514 41.232C216.335 41.232 217.175 41.2973 218.034 41.428C218.893 41.54 219.667 41.764 220.358 42.1C221.049 42.436 221.609 42.912 222.038 43.528C222.486 44.1253 222.71 44.9093 222.71 45.88C222.71 46.384 222.617 46.8787 222.43 47.364C222.262 47.8493 222.001 48.2973 221.646 48.708C221.31 49.1187 220.881 49.4827 220.358 49.8C219.835 50.1173 219.229 50.3507 218.538 50.5V50.612C219.154 50.7053 219.77 50.864 220.386 51.088C221.002 51.312 221.553 51.62 222.038 52.012C222.542 52.3853 222.943 52.852 223.242 53.412C223.541 53.972 223.69 54.644 223.69 55.428C223.69 56.436 223.438 57.304 222.934 58.032C222.449 58.76 221.805 59.3573 221.002 59.824C220.199 60.2907 219.285 60.636 218.258 60.86C217.25 61.0653 216.223 61.168 215.178 61.168C214.45 61.168 213.629 61.14 212.714 61.084C211.818 61.028 210.95 61 210.11 61H206.806ZM215.402 59.6C216.13 59.6 216.802 59.5067 217.418 59.32C218.053 59.1147 218.594 58.8347 219.042 58.48C219.49 58.1253 219.835 57.7053 220.078 57.22C220.339 56.716 220.47 56.1653 220.47 55.568C220.47 54.8213 220.311 54.2053 219.994 53.72C219.695 53.216 219.285 52.824 218.762 52.544C218.258 52.2453 217.661 52.04 216.97 51.928C216.279 51.816 215.551 51.76 214.786 51.76H212.49V59.348C212.77 59.4227 213.106 59.488 213.498 59.544C213.909 59.5813 214.543 59.6 215.402 59.6ZM214.002 50.304C214.375 50.304 214.786 50.2947 215.234 50.276C215.701 50.2387 216.093 50.2013 216.41 50.164C217.362 49.8653 218.127 49.3893 218.706 48.736C219.285 48.064 219.574 47.28 219.574 46.384C219.574 45.152 219.182 44.2467 218.398 43.668C217.614 43.0893 216.55 42.8 215.206 42.8C214.571 42.8 214.03 42.8187 213.582 42.856C213.153 42.8747 212.789 42.9027 212.49 42.94V50.304H214.002ZM241.174 55.848H242.966V60.244C242.388 60.5613 241.622 60.8227 240.67 61.028C239.718 61.2333 238.776 61.336 237.842 61.336C236.125 61.336 234.585 61.14 233.222 60.748C231.86 60.356 230.702 59.7493 229.75 58.928C228.817 58.088 228.098 57.0333 227.594 55.764C227.09 54.4947 226.838 52.9733 226.838 51.2C226.838 49.3707 227.118 47.8213 227.678 46.552C228.238 45.264 228.994 44.2187 229.946 43.416C230.898 42.5947 232 41.9973 233.25 41.624C234.501 41.2507 235.817 41.064 237.198 41.064C237.87 41.064 238.477 41.092 239.018 41.148C239.56 41.1853 240.045 41.2507 240.474 41.344C240.922 41.4373 241.333 41.5493 241.706 41.68C242.08 41.8107 242.444 41.9507 242.798 42.1V46.888H241.006V43.948L240.614 43.388C240.409 43.2947 240.082 43.1827 239.634 43.052C239.205 42.9213 238.505 42.856 237.534 42.856C236.526 42.856 235.584 43.0147 234.706 43.332C233.829 43.6493 233.064 44.144 232.41 44.816C231.776 45.488 231.272 46.356 230.898 47.42C230.525 48.4653 230.338 49.7253 230.338 51.2C230.338 53.8693 231.01 55.932 232.354 57.388C233.717 58.8253 235.621 59.544 238.066 59.544C238.738 59.544 239.298 59.4973 239.746 59.404C240.213 59.292 240.558 59.152 240.782 58.984L241.174 58.452V55.848ZM253.22 50.304L259.324 42.968H257.056V41.4H263.972V42.968H261.76L255.096 50.444L263.02 59.432H264.756V61H260.248L252.884 51.704H251.4V59.432H253.724V61H245.716V59.432H248.264V42.968H245.716V41.4H253.724V42.968H251.4V50.304H253.22ZM273.658 61H265.65V59.432H268.198V42.968H265.65V41.4H273.658V42.968H271.334V54.98L270.998 57.08L272.51 54.868L281.666 43.584V42.968H279.118V41.4H287.182V42.968H284.634V59.432H287.182V61H279.118V59.432H281.498V47.448L281.806 45.348L280.434 47.448L271.138 58.872V59.432H273.658V61ZM296.982 61H288.974V59.432H291.522V42.968H288.974V41.4H296.982V42.968H294.658V54.98L294.322 57.08L295.834 54.868L304.99 43.584V42.968H302.442V41.4H310.506V42.968H307.958V59.432H310.506V61H302.442V59.432H304.822V47.448L305.13 45.348L303.758 47.448L294.462 58.872V59.432H296.982V61ZM299.894 40.196C297.971 40.196 296.553 39.8787 295.638 39.244C294.723 38.6093 294.266 37.6387 294.266 36.332H297.514V38.544C297.775 38.6747 298.121 38.7773 298.55 38.852C298.979 38.908 299.437 38.936 299.922 38.936C300.277 38.936 300.697 38.908 301.182 38.852C301.667 38.796 302.05 38.7213 302.33 38.628V36.332H305.438C305.438 37.62 304.999 38.5907 304.122 39.244C303.263 39.8787 301.854 40.196 299.894 40.196Z" fill="#215947"/>
<path d="M21.9643 0L7.32143 18.3081H16.012L3.66071 34.788H8.23661H12.8125L0 50.8559H19.1309L19.0357 58.9929H10.9821V61H21.9643V34.5439H31.4821H41L28.0761 18.3081H36.6071L21.9643 0Z" fill="#215947"/>
</svg>
