<svg width="259" height="69" viewBox="0 0 259 69" fill="none" xmlns="http://www.w3.org/2000/svg">
<path d="M32.58 42.968V59.432H34.904V61H26.896V59.432H29.444V42.968H26.896V41.4H47.728V42.968H45.18V59.432H47.728V61H39.72V59.432H42.044V42.968H32.58ZM49.8733 53.664C49.8733 52.432 50.0506 51.34 50.4053 50.388C50.7599 49.436 51.2546 48.6427 51.8893 48.008C52.5426 47.3547 53.3266 46.86 54.2413 46.524C55.1746 46.188 56.2013 46.02 57.3213 46.02C58.6279 46.02 59.7479 46.2067 60.6813 46.58C61.6333 46.9347 62.4079 47.448 63.0053 48.12C63.6026 48.7733 64.0413 49.576 64.3213 50.528C64.6199 51.4613 64.7693 52.5067 64.7693 53.664C64.7693 54.896 64.5919 55.988 64.2373 56.94C63.9013 57.8733 63.4066 58.6667 62.7533 59.32C62.1186 59.9547 61.3346 60.44 60.4013 60.776C59.4866 61.112 58.4599 61.28 57.3213 61.28C56.0519 61.28 54.9506 61.1027 54.0173 60.748C53.0839 60.3747 52.3093 59.8613 51.6933 59.208C51.0773 58.536 50.6199 57.7333 50.3213 56.8C50.0226 55.8667 49.8733 54.8213 49.8733 53.664ZM53.0373 53.664C53.0373 54.56 53.1213 55.3907 53.2893 56.156C53.4573 56.9213 53.7279 57.584 54.1013 58.144C54.4933 58.704 54.9879 59.152 55.5853 59.488C56.2013 59.8053 56.9479 59.964 57.8253 59.964C58.9266 59.964 59.8319 59.46 60.5413 58.452C61.2506 57.444 61.6053 55.848 61.6053 53.664C61.6053 52.768 61.5213 51.9373 61.3533 51.172C61.1853 50.388 60.9146 49.716 60.5413 49.156C60.1866 48.5773 59.7199 48.1293 59.1413 47.812C58.5813 47.4947 57.8906 47.336 57.0693 47.336C55.8373 47.336 54.8573 47.84 54.1293 48.848C53.4013 49.856 53.0373 51.4613 53.0373 53.664ZM68.3736 61L67.8136 61.56V65.2H65.7976V59.6H67.6736C67.9163 59.32 68.1963 58.9093 68.5136 58.368C68.831 57.8267 69.1296 57.0893 69.4096 56.156C69.6896 55.2227 69.923 54.0653 70.1096 52.684C70.315 51.3027 70.4176 49.6413 70.4176 47.7H68.2336V46.3H81.7016V47.7H79.6296V59.6H82.1496V65.2H80.1336V61.56L79.5736 61H68.3736ZM72.2096 47.784C72.191 49.5573 72.0883 51.0973 71.9016 52.404C71.715 53.7107 71.491 54.84 71.2296 55.792C70.9683 56.7253 70.6883 57.5 70.3896 58.116C70.1096 58.732 69.8576 59.2267 69.6336 59.6H76.6896V47.784H72.2096ZM84.5725 53.664C84.5725 52.432 84.7498 51.34 85.1045 50.388C85.4592 49.436 85.9538 48.6427 86.5885 48.008C87.2418 47.3547 88.0258 46.86 88.9405 46.524C89.8738 46.188 90.9005 46.02 92.0205 46.02C93.3272 46.02 94.4472 46.2067 95.3805 46.58C96.3325 46.9347 97.1072 47.448 97.7045 48.12C98.3018 48.7733 98.7405 49.576 99.0205 50.528C99.3192 51.4613 99.4685 52.5067 99.4685 53.664C99.4685 54.896 99.2912 55.988 98.9365 56.94C98.6005 57.8733 98.1058 58.6667 97.4525 59.32C96.8178 59.9547 96.0338 60.44 95.1005 60.776C94.1858 61.112 93.1592 61.28 92.0205 61.28C90.7512 61.28 89.6498 61.1027 88.7165 60.748C87.7832 60.3747 87.0085 59.8613 86.3925 59.208C85.7765 58.536 85.3192 57.7333 85.0205 56.8C84.7218 55.8667 84.5725 54.8213 84.5725 53.664ZM87.7365 53.664C87.7365 54.56 87.8205 55.3907 87.9885 56.156C88.1565 56.9213 88.4272 57.584 88.8005 58.144C89.1925 58.704 89.6872 59.152 90.2845 59.488C90.9005 59.8053 91.6472 59.964 92.5245 59.964C93.6258 59.964 94.5312 59.46 95.2405 58.452C95.9498 57.444 96.3045 55.848 96.3045 53.664C96.3045 52.768 96.2205 51.9373 96.0525 51.172C95.8845 50.388 95.6138 49.716 95.2405 49.156C94.8858 48.5773 94.4192 48.1293 93.8405 47.812C93.2805 47.4947 92.5898 47.336 91.7685 47.336C90.5365 47.336 89.5565 47.84 88.8285 48.848C88.1005 49.856 87.7365 51.4613 87.7365 53.664ZM114.226 59.124C113.834 59.6653 113.209 60.1693 112.35 60.636C111.51 61.084 110.512 61.308 109.354 61.308C108.122 61.308 107.04 61.1307 106.106 60.776C105.192 60.4027 104.426 59.8893 103.81 59.236C103.194 58.564 102.737 57.7613 102.438 56.828C102.14 55.876 101.99 54.8213 101.99 53.664C101.99 51.1813 102.644 49.2867 103.95 47.98C105.276 46.6733 107.068 46.02 109.326 46.02C110.353 46.02 111.202 46.0853 111.874 46.216C112.546 46.3467 113.162 46.552 113.722 46.832V50.472H111.202V47.784C110.922 47.616 110.362 47.532 109.522 47.532C108.813 47.532 108.188 47.6347 107.646 47.84C107.105 48.0453 106.648 48.3813 106.274 48.848C105.901 49.3147 105.621 49.94 105.434 50.724C105.248 51.508 105.154 52.4693 105.154 53.608C105.154 54.3547 105.257 55.0733 105.462 55.764C105.668 56.436 105.976 57.0333 106.386 57.556C106.797 58.06 107.31 58.4613 107.926 58.76C108.561 59.0587 109.298 59.208 110.138 59.208C110.586 59.208 110.978 59.1613 111.314 59.068C111.669 58.9747 111.977 58.8813 112.238 58.788C112.5 58.676 112.733 58.5547 112.938 58.424C113.144 58.2933 113.34 58.1533 113.526 58.004L114.226 59.124ZM116.591 46.3H123.311V47.7H121.463V56.324L121.295 59.348H121.463L122.527 56.856L128.071 46.3H133.531V47.7H131.459V59.6H133.531V61H126.811V59.6H128.659V50.64L128.967 47.756H128.799L127.623 50.528L121.995 61H116.591V59.6H118.663V47.7H116.591V46.3ZM142.81 61H135.95V59.6H138.022V47.7H135.95V46.3H142.81V47.7H140.962V52.796H147.822V47.7H145.974V46.3H152.834V47.7H150.762V59.6H152.834V61H145.974V59.6H147.822V54.308H140.962V59.6H142.81V61ZM155.311 53.664C155.311 52.432 155.488 51.34 155.843 50.388C156.197 49.436 156.692 48.6427 157.327 48.008C157.98 47.3547 158.764 46.86 159.679 46.524C160.612 46.188 161.639 46.02 162.759 46.02C164.065 46.02 165.185 46.2067 166.119 46.58C167.071 46.9347 167.845 47.448 168.443 48.12C169.04 48.7733 169.479 49.576 169.759 50.528C170.057 51.4613 170.207 52.5067 170.207 53.664C170.207 54.896 170.029 55.988 169.675 56.94C169.339 57.8733 168.844 58.6667 168.191 59.32C167.556 59.9547 166.772 60.44 165.839 60.776C164.924 61.112 163.897 61.28 162.759 61.28C161.489 61.28 160.388 61.1027 159.455 60.748C158.521 60.3747 157.747 59.8613 157.131 59.208C156.515 58.536 156.057 57.7333 155.759 56.8C155.46 55.8667 155.311 54.8213 155.311 53.664ZM158.475 53.664C158.475 54.56 158.559 55.3907 158.727 56.156C158.895 56.9213 159.165 57.584 159.539 58.144C159.931 58.704 160.425 59.152 161.023 59.488C161.639 59.8053 162.385 59.964 163.263 59.964C164.364 59.964 165.269 59.46 165.979 58.452C166.688 57.444 167.043 55.848 167.043 53.664C167.043 52.768 166.959 51.9373 166.791 51.172C166.623 50.388 166.352 49.716 165.979 49.156C165.624 48.5773 165.157 48.1293 164.579 47.812C164.019 47.4947 163.328 47.336 162.507 47.336C161.275 47.336 160.295 47.84 159.567 48.848C158.839 49.856 158.475 51.4613 158.475 53.664ZM186.645 56.716C186.645 57.5 186.458 58.172 186.085 58.732C185.711 59.2733 185.207 59.7213 184.573 60.076C183.957 60.4307 183.229 60.692 182.389 60.86C181.549 61.028 180.671 61.112 179.757 61.112C179.085 61.112 178.543 61.1027 178.133 61.084C177.722 61.084 177.377 61.0747 177.097 61.056C176.835 61.0373 176.602 61.0187 176.397 61C176.21 61 175.995 61 175.753 61H172.673V59.6H174.745V47.7H172.673V46.3H175.585C176.07 46.3 176.49 46.3 176.845 46.3C177.218 46.2813 177.563 46.2627 177.881 46.244C178.217 46.2253 178.534 46.216 178.833 46.216C179.15 46.1973 179.505 46.188 179.897 46.188C181.726 46.188 183.163 46.4493 184.209 46.972C185.254 47.476 185.777 48.3813 185.777 49.688C185.777 50.1547 185.665 50.584 185.441 50.976C185.235 51.3493 184.955 51.676 184.601 51.956C184.265 52.236 183.882 52.4693 183.453 52.656C183.042 52.8427 182.641 52.9733 182.249 53.048C182.827 53.104 183.378 53.216 183.901 53.384C184.442 53.552 184.918 53.7853 185.329 54.084C185.739 54.3827 186.057 54.756 186.281 55.204C186.523 55.6333 186.645 56.1373 186.645 56.716ZM177.685 59.684C177.983 59.74 178.347 59.7773 178.777 59.796C179.206 59.796 179.57 59.796 179.869 59.796C181.082 59.796 181.987 59.544 182.585 59.04C183.182 58.536 183.481 57.8267 183.481 56.912C183.481 55.96 183.117 55.2507 182.389 54.784C181.679 54.3173 180.755 54.084 179.617 54.084H177.685V59.684ZM177.685 52.936H181.129C181.315 52.8613 181.502 52.74 181.689 52.572C181.894 52.3853 182.081 52.1707 182.249 51.928C182.417 51.6853 182.557 51.4053 182.669 51.088C182.781 50.752 182.837 50.388 182.837 49.996C182.837 49.044 182.529 48.3907 181.913 48.036C181.315 47.6813 180.429 47.504 179.253 47.504C179.029 47.504 178.758 47.5133 178.441 47.532C178.142 47.532 177.89 47.56 177.685 47.616V52.936ZM201.617 59.124C201.225 59.6653 200.6 60.1693 199.741 60.636C198.901 61.084 197.902 61.308 196.745 61.308C195.513 61.308 194.43 61.1307 193.497 60.776C192.582 60.4027 191.817 59.8893 191.201 59.236C190.585 58.564 190.128 57.7613 189.829 56.828C189.53 55.876 189.381 54.8213 189.381 53.664C189.381 51.1813 190.034 49.2867 191.341 47.98C192.666 46.6733 194.458 46.02 196.717 46.02C197.744 46.02 198.593 46.0853 199.265 46.216C199.937 46.3467 200.553 46.552 201.113 46.832V50.472H198.593V47.784C198.313 47.616 197.753 47.532 196.913 47.532C196.204 47.532 195.578 47.6347 195.037 47.84C194.496 48.0453 194.038 48.3813 193.665 48.848C193.292 49.3147 193.012 49.94 192.825 50.724C192.638 51.508 192.545 52.4693 192.545 53.608C192.545 54.3547 192.648 55.0733 192.853 55.764C193.058 56.436 193.366 57.0333 193.777 57.556C194.188 58.06 194.701 58.4613 195.317 58.76C195.952 59.0587 196.689 59.208 197.529 59.208C197.977 59.208 198.369 59.1613 198.705 59.068C199.06 58.9747 199.368 58.8813 199.629 58.788C199.89 58.676 200.124 58.5547 200.329 58.424C200.534 58.2933 200.73 58.1533 200.917 58.004L201.617 59.124ZM213.053 46.3H218.849V47.7H217.057L212.717 52.712L218.429 59.6H219.829V61H215.797L210.589 54.056H208.993V59.6H211.009V61H203.981V59.6H206.053V47.7H203.981V46.3H210.561V47.7H208.993V52.908H210.449L214.817 47.7H213.053V46.3ZM221.071 46.3H227.791V47.7H225.943V56.324L225.775 59.348H225.943L227.007 56.856L232.551 46.3H238.011V47.7H235.939V59.6H238.011V61H231.291V59.6H233.139V50.64L233.447 47.756H233.279L232.103 50.528L226.475 61H221.071V59.6H223.143V47.7H221.071V46.3ZM240.431 46.3H247.151V47.7H245.303V56.324L245.135 59.348H245.303L246.367 56.856L251.911 46.3H257.371V47.7H255.299V59.6H257.371V61H250.651V59.6H252.499V50.64L252.807 47.756H252.639L251.463 50.528L245.835 61H240.431V59.6H242.503V47.7H240.431V46.3ZM249.223 44.536C248.551 44.536 247.916 44.48 247.319 44.368C246.721 44.2373 246.189 44.0693 245.723 43.864C245.275 43.64 244.892 43.3973 244.575 43.136C244.276 42.856 244.071 42.5573 243.959 42.24V40.616H247.151V42.828C247.393 42.996 247.683 43.1173 248.019 43.192C248.355 43.248 248.765 43.276 249.251 43.276C249.755 43.276 250.156 43.2573 250.455 43.22C250.772 43.164 251.08 43.0613 251.379 42.912V40.616H254.431V42.24C254.375 42.5573 254.197 42.856 253.899 43.136C253.6 43.416 253.208 43.6587 252.723 43.864C252.256 44.0693 251.724 44.2373 251.127 44.368C250.529 44.48 249.895 44.536 249.223 44.536Z" fill="#215947"/>
<path d="M21.9643 0L7.32143 18.3081H16.012L3.66071 34.788H8.23661H12.8125L0 50.8559H19.1309L19.0357 58.9929H10.9821V61H21.9643V34.5439H31.4821H41L28.0761 18.3081H36.6071L21.9643 0Z" fill="#215947"/>
</svg>
