<svg width="356" height="76" viewBox="0 0 356 76" fill="none" xmlns="http://www.w3.org/2000/svg">
<path d="M344 68H329" stroke="#215947" stroke-width="2" stroke-miterlimit="10"/>
<path d="M313 14.7583L309.897 11L301.276 25.0083H307.617L295.759 36.2833H304.379L293 52H300.338" stroke="#215947" stroke-width="2" stroke-miterlimit="10"/>
<path d="M303 67.956H318.407L320.428 51.8799H303L316.247 33.0963H306.108L319.517 18.8816H312.424L323.855 2L335.028 18.8816H328.011L341.676 33.0963H331.787L345 52.3876L327.216 51.8799L329.433 68L318.547 67.956" stroke="#215947" stroke-width="2" stroke-miterlimit="10"/>
<path d="M335 15.6667L337.948 12L346.138 25.6667H340.117L351.379 36.6667H343.19L354 52H347.029" stroke="#215947" stroke-width="2" stroke-miterlimit="10"/>
<path d="M6.58 49.968V66.432H8.904V68H0.896V66.432H3.444V49.968H0.896V48.4H21.728V49.968H19.18V66.432H21.728V68H13.72V66.432H16.044V49.968H6.58ZM24.2093 58.2C24.2093 56.744 24.4333 55.4 24.8813 54.168C25.3293 52.9173 25.9733 51.844 26.8133 50.948C27.6719 50.0333 28.7173 49.324 29.9493 48.82C31.1999 48.316 32.6186 48.064 34.2053 48.064C35.7919 48.064 37.2106 48.316 38.4613 48.82C39.7119 49.324 40.7666 50.0333 41.6253 50.948C42.4839 51.844 43.1373 52.9173 43.5853 54.168C44.0333 55.4 44.2573 56.744 44.2573 58.2C44.2573 59.656 44.0333 61.0093 43.5853 62.26C43.1373 63.492 42.4839 64.5653 41.6253 65.48C40.7666 66.376 39.7119 67.076 38.4613 67.58C37.2106 68.084 35.7919 68.336 34.2053 68.336C32.6186 68.336 31.1999 68.084 29.9493 67.58C28.7173 67.076 27.6719 66.376 26.8133 65.48C25.9733 64.5653 25.3293 63.492 24.8813 62.26C24.4333 61.0093 24.2093 59.656 24.2093 58.2ZM27.7093 58.2C27.7093 59.3947 27.8399 60.5147 28.1013 61.56C28.3813 62.6053 28.8013 63.5107 29.3613 64.276C29.9213 65.0413 30.6213 65.648 31.4613 66.096C32.3199 66.544 33.3279 66.768 34.4853 66.768C35.5493 66.768 36.4733 66.544 37.2573 66.096C38.0413 65.648 38.6853 65.0413 39.1893 64.276C39.7119 63.5107 40.1039 62.6053 40.3653 61.56C40.6266 60.5147 40.7573 59.3947 40.7573 58.2C40.7573 57.0053 40.6173 55.8853 40.3373 54.84C40.0759 53.7947 39.6653 52.8893 39.1053 52.124C38.5453 51.3587 37.8359 50.752 36.9773 50.304C36.1373 49.856 35.1293 49.632 33.9533 49.632C32.8333 49.632 31.8719 49.856 31.0693 50.304C30.2853 50.752 29.6413 51.3587 29.1373 52.124C28.6333 52.8893 28.2693 53.7947 28.0453 54.84C27.8213 55.8853 27.7093 57.0053 27.7093 58.2ZM65.5018 49.968H62.9538V66.432H65.8658V72.536H63.7658V68.616L63.2058 68H48.0298L47.4698 68.616V72.536H45.3698V66.432H48.1138C48.6365 65.648 49.1312 64.64 49.5978 63.408C50.0645 62.176 50.4658 60.832 50.8018 59.376C51.1565 57.9013 51.4365 56.3613 51.6418 54.756C51.8472 53.132 51.9498 51.536 51.9498 49.968H48.9258V48.4H65.5018V49.968ZM59.8178 66.432V49.968H53.8818C53.7698 52.264 53.5738 54.308 53.2938 56.1C53.0325 57.8733 52.7245 59.432 52.3698 60.776C52.0338 62.12 51.6698 63.2587 51.2778 64.192C50.9045 65.1067 50.5685 65.8533 50.2698 66.432H59.8178ZM68.1507 58.2C68.1507 56.744 68.3747 55.4 68.8227 54.168C69.2707 52.9173 69.9147 51.844 70.7547 50.948C71.6134 50.0333 72.6587 49.324 73.8907 48.82C75.1414 48.316 76.56 48.064 78.1467 48.064C79.7334 48.064 81.152 48.316 82.4027 48.82C83.6534 49.324 84.708 50.0333 85.5667 50.948C86.4254 51.844 87.0787 52.9173 87.5267 54.168C87.9747 55.4 88.1987 56.744 88.1987 58.2C88.1987 59.656 87.9747 61.0093 87.5267 62.26C87.0787 63.492 86.4254 64.5653 85.5667 65.48C84.708 66.376 83.6534 67.076 82.4027 67.58C81.152 68.084 79.7334 68.336 78.1467 68.336C76.56 68.336 75.1414 68.084 73.8907 67.58C72.6587 67.076 71.6134 66.376 70.7547 65.48C69.9147 64.5653 69.2707 63.492 68.8227 62.26C68.3747 61.0093 68.1507 59.656 68.1507 58.2ZM71.6507 58.2C71.6507 59.3947 71.7814 60.5147 72.0427 61.56C72.3227 62.6053 72.7427 63.5107 73.3027 64.276C73.8627 65.0413 74.5627 65.648 75.4027 66.096C76.2614 66.544 77.2694 66.768 78.4267 66.768C79.4907 66.768 80.4147 66.544 81.1987 66.096C81.9827 65.648 82.6267 65.0413 83.1307 64.276C83.6534 63.5107 84.0454 62.6053 84.3067 61.56C84.568 60.5147 84.6987 59.3947 84.6987 58.2C84.6987 57.0053 84.5587 55.8853 84.2787 54.84C84.0174 53.7947 83.6067 52.8893 83.0467 52.124C82.4867 51.3587 81.7774 50.752 80.9187 50.304C80.0787 49.856 79.0707 49.632 77.8947 49.632C76.7747 49.632 75.8134 49.856 75.0107 50.304C74.2267 50.752 73.5827 51.3587 73.0787 52.124C72.5747 52.8893 72.2107 53.7947 71.9867 54.84C71.7627 55.8853 71.6507 57.0053 71.6507 58.2ZM105.729 62.848H107.521V67.244C106.942 67.5613 106.177 67.8227 105.225 68.028C104.273 68.2333 103.33 68.336 102.397 68.336C100.68 68.336 99.1395 68.14 97.7769 67.748C96.4142 67.356 95.2569 66.7493 94.3049 65.928C93.3715 65.088 92.6529 64.0333 92.1489 62.764C91.6449 61.4947 91.3929 59.9733 91.3929 58.2C91.3929 56.3707 91.6729 54.8213 92.2329 53.552C92.7929 52.264 93.5489 51.2187 94.5009 50.416C95.4529 49.5947 96.5542 48.9973 97.8049 48.624C99.0555 48.2507 100.372 48.064 101.753 48.064C102.425 48.064 103.032 48.092 103.573 48.148C104.114 48.1853 104.6 48.2507 105.029 48.344C105.477 48.4373 105.888 48.5493 106.261 48.68C106.634 48.8107 106.998 48.9507 107.353 49.1V53.888H105.561V50.948L105.169 50.388C104.964 50.2947 104.637 50.1827 104.189 50.052C103.76 49.9213 103.06 49.856 102.089 49.856C101.081 49.856 100.138 50.0147 99.2609 50.332C98.3835 50.6493 97.6182 51.144 96.9649 51.816C96.3302 52.488 95.8262 53.356 95.4529 54.42C95.0795 55.4653 94.8929 56.7253 94.8929 58.2C94.8929 60.8693 95.5649 62.932 96.9089 64.388C98.2715 65.8253 100.176 66.544 102.621 66.544C103.293 66.544 103.853 66.4973 104.301 66.404C104.768 66.292 105.113 66.152 105.337 65.984L105.729 65.452V62.848ZM118.279 68H110.271V66.432H112.819V49.968H110.271V48.4H118.279V49.968H115.955V61.98L115.619 64.08L117.131 61.868L126.287 50.584V49.968H123.739V48.4H131.803V49.968H129.255V66.432H131.803V68H123.739V66.432H126.119V54.448L126.427 52.348L125.055 54.448L115.759 65.872V66.432H118.279V68ZM141.603 66.432V68H133.595V66.432H136.143V49.968H133.595V48.4H141.603V49.968H139.279V57.164H149.079V49.968H146.755V48.4H154.763V49.968H152.215V66.432H154.763V68H146.755V66.432H149.079V58.732H139.279V66.432H141.603ZM157.264 58.2C157.264 56.744 157.488 55.4 157.936 54.168C158.384 52.9173 159.028 51.844 159.868 50.948C160.727 50.0333 161.772 49.324 163.004 48.82C164.255 48.316 165.673 48.064 167.26 48.064C168.847 48.064 170.265 48.316 171.516 48.82C172.767 49.324 173.821 50.0333 174.68 50.948C175.539 51.844 176.192 52.9173 176.64 54.168C177.088 55.4 177.312 56.744 177.312 58.2C177.312 59.656 177.088 61.0093 176.64 62.26C176.192 63.492 175.539 64.5653 174.68 65.48C173.821 66.376 172.767 67.076 171.516 67.58C170.265 68.084 168.847 68.336 167.26 68.336C165.673 68.336 164.255 68.084 163.004 67.58C161.772 67.076 160.727 66.376 159.868 65.48C159.028 64.5653 158.384 63.492 157.936 62.26C157.488 61.0093 157.264 59.656 157.264 58.2ZM160.764 58.2C160.764 59.3947 160.895 60.5147 161.156 61.56C161.436 62.6053 161.856 63.5107 162.416 64.276C162.976 65.0413 163.676 65.648 164.516 66.096C165.375 66.544 166.383 66.768 167.54 66.768C168.604 66.768 169.528 66.544 170.312 66.096C171.096 65.648 171.74 65.0413 172.244 64.276C172.767 63.5107 173.159 62.6053 173.42 61.56C173.681 60.5147 173.812 59.3947 173.812 58.2C173.812 57.0053 173.672 55.8853 173.392 54.84C173.131 53.7947 172.72 52.8893 172.16 52.124C171.6 51.3587 170.891 50.752 170.032 50.304C169.192 49.856 168.184 49.632 167.008 49.632C165.888 49.632 164.927 49.856 164.124 50.304C163.34 50.752 162.696 51.3587 162.192 52.124C161.688 52.8893 161.324 53.7947 161.1 54.84C160.876 55.8853 160.764 57.0053 160.764 58.2ZM179.806 68V66.432H182.354V49.968H179.806V48.4H183.474C183.866 48.4 184.239 48.3907 184.594 48.372C184.949 48.3533 185.322 48.3347 185.714 48.316C186.106 48.2973 186.526 48.2787 186.974 48.26C187.441 48.2413 187.954 48.232 188.514 48.232C189.335 48.232 190.175 48.2973 191.034 48.428C191.893 48.54 192.667 48.764 193.358 49.1C194.049 49.436 194.609 49.912 195.038 50.528C195.486 51.1253 195.71 51.9093 195.71 52.88C195.71 53.384 195.617 53.8787 195.43 54.364C195.262 54.8493 195.001 55.2973 194.646 55.708C194.31 56.1187 193.881 56.4827 193.358 56.8C192.835 57.1173 192.229 57.3507 191.538 57.5V57.612C192.154 57.7053 192.77 57.864 193.386 58.088C194.002 58.312 194.553 58.62 195.038 59.012C195.542 59.3853 195.943 59.852 196.242 60.412C196.541 60.972 196.69 61.644 196.69 62.428C196.69 63.436 196.438 64.304 195.934 65.032C195.449 65.76 194.805 66.3573 194.002 66.824C193.199 67.2907 192.285 67.636 191.258 67.86C190.25 68.0653 189.223 68.168 188.178 68.168C187.45 68.168 186.629 68.14 185.714 68.084C184.818 68.028 183.95 68 183.11 68H179.806ZM188.402 66.6C189.13 66.6 189.802 66.5067 190.418 66.32C191.053 66.1147 191.594 65.8347 192.042 65.48C192.49 65.1253 192.835 64.7053 193.078 64.22C193.339 63.716 193.47 63.1653 193.47 62.568C193.47 61.8213 193.311 61.2053 192.994 60.72C192.695 60.216 192.285 59.824 191.762 59.544C191.258 59.2453 190.661 59.04 189.97 58.928C189.279 58.816 188.551 58.76 187.786 58.76H185.49V66.348C185.77 66.4227 186.106 66.488 186.498 66.544C186.909 66.5813 187.543 66.6 188.402 66.6ZM187.002 57.304C187.375 57.304 187.786 57.2947 188.234 57.276C188.701 57.2387 189.093 57.2013 189.41 57.164C190.362 56.8653 191.127 56.3893 191.706 55.736C192.285 55.064 192.574 54.28 192.574 53.384C192.574 52.152 192.182 51.2467 191.398 50.668C190.614 50.0893 189.55 49.8 188.206 49.8C187.571 49.8 187.03 49.8187 186.582 49.856C186.153 49.8747 185.789 49.9027 185.49 49.94V57.304H187.002ZM214.174 62.848H215.966V67.244C215.388 67.5613 214.622 67.8227 213.67 68.028C212.718 68.2333 211.776 68.336 210.842 68.336C209.125 68.336 207.585 68.14 206.222 67.748C204.86 67.356 203.702 66.7493 202.75 65.928C201.817 65.088 201.098 64.0333 200.594 62.764C200.09 61.4947 199.838 59.9733 199.838 58.2C199.838 56.3707 200.118 54.8213 200.678 53.552C201.238 52.264 201.994 51.2187 202.946 50.416C203.898 49.5947 205 48.9973 206.25 48.624C207.501 48.2507 208.817 48.064 210.198 48.064C210.87 48.064 211.477 48.092 212.018 48.148C212.56 48.1853 213.045 48.2507 213.474 48.344C213.922 48.4373 214.333 48.5493 214.706 48.68C215.08 48.8107 215.444 48.9507 215.798 49.1V53.888H214.006V50.948L213.614 50.388C213.409 50.2947 213.082 50.1827 212.634 50.052C212.205 49.9213 211.505 49.856 210.534 49.856C209.526 49.856 208.584 50.0147 207.706 50.332C206.829 50.6493 206.064 51.144 205.41 51.816C204.776 52.488 204.272 53.356 203.898 54.42C203.525 55.4653 203.338 56.7253 203.338 58.2C203.338 60.8693 204.01 62.932 205.354 64.388C206.717 65.8253 208.621 66.544 211.066 66.544C211.738 66.544 212.298 66.4973 212.746 66.404C213.213 66.292 213.558 66.152 213.782 65.984L214.174 65.452V62.848ZM226.22 57.304L232.324 49.968H230.056V48.4H236.972V49.968H234.76L228.096 57.444L236.02 66.432H237.756V68H233.248L225.884 58.704H224.4V66.432H226.724V68H218.716V66.432H221.264V49.968H218.716V48.4H226.724V49.968H224.4V57.304H226.22ZM246.658 68H238.65V66.432H241.198V49.968H238.65V48.4H246.658V49.968H244.334V61.98L243.998 64.08L245.51 61.868L254.666 50.584V49.968H252.118V48.4H260.182V49.968H257.634V66.432H260.182V68H252.118V66.432H254.498V54.448L254.806 52.348L253.434 54.448L244.138 65.872V66.432H246.658V68ZM269.982 68H261.974V66.432H264.522V49.968H261.974V48.4H269.982V49.968H267.658V61.98L267.322 64.08L268.834 61.868L277.99 50.584V49.968H275.442V48.4H283.506V49.968H280.958V66.432H283.506V68H275.442V66.432H277.822V54.448L278.13 52.348L276.758 54.448L267.462 65.872V66.432H269.982V68ZM272.894 47.196C270.971 47.196 269.553 46.8787 268.638 46.244C267.723 45.6093 267.266 44.6387 267.266 43.332H270.514V45.544C270.775 45.6747 271.121 45.7773 271.55 45.852C271.979 45.908 272.437 45.936 272.922 45.936C273.277 45.936 273.697 45.908 274.182 45.852C274.667 45.796 275.05 45.7213 275.33 45.628V43.332H278.438C278.438 44.62 277.999 45.5907 277.122 46.244C276.263 46.8787 274.854 47.196 272.894 47.196Z" fill="#215947"/>
</svg>
